:SAMPLES-PER-SECOND 24
:FULLY-SPECIFIED
:DEGREES
139
root  -2.0427 37.2255 17.5866 6.409 -31.8979 1.77232
RightUpLeg  -11.4528 1.8056 -13.6301
RightLeg  37.0127 -1.82354 -1.73773
RightFoot  -26.4983 1.48209 12.4239
RightToes  -2.08645e-008 3.77894e-005 6.81332e-007
Spine  -0.852005 -0.761871 -5.49037
Spine1  10.7064 -1.85114 4.04485
HEad  -35.2431 19.6862 -15.6214
LeftShoulder1  5.69447 -11.2988 -32.4678
LeftArm  7.34498 9.26047 -21.7929
LeftForeArm  164.429 -69.2484 -153.684
LeftHand  -0.406164 -2.96191 5.8829
RightShoulder  3.45319 6.03641 30.2916
RightArm  14.4062 -24.1186 29.0365
RightForeArm  142.908 76.9784 132.938
RightHand  -0.103173 9.46386 -1.20459
LeftUpLeg  -13.4101 -3.22168 13.8114
LeftLeg  30.5581 0.999335 0.988848
LeftFoot  -18.6791 -1.31779 -21.9246
LeftToes  1.24767e-006 1.47042e-008 1.32732e-009
140
root  -1.6183 37.4834 17.508 5.55188 -33.9345 1.634
RightUpLeg  -10.7923 5.2291 -13.6085
RightLeg  35.0233 -3.65053 -2.9809
RightFoot  -24.4669 1.2741 12.4881
RightToes  -2.08645e-008 3.77894e-005 6.81332e-007
Spine  -1.41864 -0.161895 -4.75101
Spine1  12.5654 -0.903054 2.45945
HEad  -36.726 20.7422 -16.2633
LeftShoulder1  6.25116 -11.9744 -34.3786
LeftArm  2.19051 12.1668 -25.0171
LeftForeArm  164.257 -71.4356 -150.492
LeftHand  -0.47095 -2.62168 7.04349
RightShoulder  3.60751 6.23102 31.162
RightArm  12.9116 -22.0246 31.3805
RightForeArm  133.568 78.925 121.322
RightHand  -0.146888 9.36932 -1.55007
LeftUpLeg  -11.0711 -4.66915 12.4323
LeftLeg  28.4247 5.93541 3.76994
LeftFoot  -17.3744 -1.00051 -20.6724
LeftToes  1.24767e-006 1.47042e-008 1.32732e-009
141
root  -1.4129 38.8916 17.699 6.38208 -34.9337 0.708282
RightUpLeg  -8.8815 5.5567 -13.1819
RightLeg  28.0291 -3.15036 -2.05691
RightFoot  -15.8588 0.426286 13.6451
RightToes  -2.08645e-008 3.77894e-005 6.81332e-007
Spine  -2.76629 -0.531658 -4.76341
Spine1  11.4785 -1.43884 3.59907
HEad  -34.0185 23.4481 -16.4914
LeftShoulder1  6.4157 -12.1069 -35.08
LeftArm  -3.16198 21.648 -33.0089
LeftForeArm  161.493 -70.6603 -151.276
LeftHand  -0.453598 -2.13504 7.19769
RightShoulder  3.66259 6.25939 31.6266
RightArm  14.4188 -24.5459 33.4387
RightForeArm  140.002 78.0996 127.481
RightHand  -0.125158 9.62351 -1.36571
LeftUpLeg  -8.44047 -4.51413 12.5375
LeftLeg  21.6765 6.8025 3.26662
LeftFoot  -9.11009 0.509809 -22.2207
LeftToes  1.24767e-006 1.47042e-008 1.32732e-009
142
root  -1.38218 40.6153 17.8862 8.64447 -35.0162 -0.089386
RightUpLeg  -8.28978 2.25723 -12.7584
RightLeg  20.1204 -1.60499 -0.863708
RightFoot  -3.42763 -0.982962 13.8093
RightToes  -2.08645e-008 3.77894e-005 6.81332e-007
Spine  -5.31369 -1.03649 -5.00143
Spine1  9.55635 -1.95241 4.51826
HEad  -29.9871 25.7384 -15.6702
LeftShoulder1  6.23731 -11.8651 -34.5733
LeftArm  -6.701 29.6887 -40.5775
LeftForeArm  154.426 -69.5922 -151.883
LeftHand  -0.446053 -1.79118 7.39306
RightShoulder  3.62821 6.15076 31.6936
RightArm  15.9211 -29.8627 34.7821
RightForeArm  152.425 75.439 139.945
RightHand  0.0300613 10.4102 -0.194611
LeftUpLeg  -8.64108 2.61456 13.0095
LeftLeg  15.1595 2.3369 1.45564
LeftFoot  5.06715 3.1133 -21.5829
LeftToes  1.24767e-006 1.47042e-008 1.32732e-009
143
root  -1.26285 41.8474 17.8947 10.0885 -35.6001 -1.14542
RightUpLeg  -9.02469 -1.00707 -11.3642
RightLeg  16.972 -1.85803 -1.04192
RightFoot  5.47321 -1.93357 13.269
RightToes  -2.08645e-008 3.77894e-005 6.81332e-007
Spine  -6.28733 -0.849013 -3.12349
Spine1  8.56696 -1.39748 3.11855
HEad  -29.6446 26.5557 -15.1639
LeftShoulder1  6.2326 -11.9261 -34.3843
LeftArm  -7.83161 33.7321 -42.8474
LeftForeArm  152.201 -67.8353 -153.908
LeftHand  -0.336183 -1.80886 5.59637
RightShoulder  3.86367 6.44777 32.9413
RightArm  15.5743 -33.5062 33.2195
RightForeArm  162.816 71.3443 150.395
RightHand  0.455971 11.2457 2.74526
LeftUpLeg  -9.53287 7.62319 13.5045
LeftLeg  12.3576 1.84914 0.926391
LeftFoot  16.0547 4.44334 -18.4536
LeftToes  1.24767e-006 1.47042e-008 1.32732e-009
144
root  -1.00733 42.3736 17.7581 9.53912 -36.077 -2.14975
RightUpLeg  -8.61838 -2.06512 -9.78377
RightLeg  17.5421 -2.41591 -1.23158
RightFoot  6.59289 -2.14321 13.8207
RightToes  -2.08645e-008 3.77894e-005 6.81332e-007
Spine  -4.74257 -0.567936 -1.4163
Spine1  8.50117 -1.02569 2.3798
HEad  -31.6049 26.2894 -15.8546
LeftShoulder1  6.25591 -12.022 -34.2895
LeftArm  -6.08164 33.8445 -41.6293
LeftForeArm  157.427 -66.0076 -156.603
LeftHand  -0.231616 -2.10418 3.78584
RightShoulder  3.93179 6.59242 33.0609
RightArm  15.1884 -33.2182 31.532
RightForeArm  166.061 68.5776 154.753
RightHand  0.390384 11.0308 2.31945
LeftUpLeg  -9.38686 6.21136 13.7522
LeftLeg  12.2831 2.26978 1.19375
LeftFoot  16.9112 4.38196 -17.7087
LeftToes  1.24767e-006 1.47042e-008 1.32732e-009
145
root  -0.784204 42.2915 17.5695 8.36285 -36.003 -2.41927
RightUpLeg  -7.89978 -2.11462 -8.68952
RightLeg  19.1568 -0.231893 -0.310804
RightFoot  4.56668 -2.09842 15.19
RightToes  -2.08645e-008 3.77894e-005 6.81332e-007
Spine  -3.05806 -0.562932 -1.71232
Spine1  8.2395 -1.16122 2.88199
HEad  -31.6583 25.9311 -15.6944
LeftShoulder1  5.8326 -11.5542 -32.733
LeftArm  -1.21556 31.227 -39.8218
LeftForeArm  162.34 -66.013 -157.149
LeftHand  -0.264191 -2.50371 4.09287
RightShoulder  3.64369 6.28781 31.3163
RightArm  16.0337 -30.6678 31.2101
RightForeArm  162.397 69.0165 153.71
RightHand  -0.018118 9.21979 -0.561348
LeftUpLeg  -9.56728 2.60016 13.0283
LeftLeg  12.9123 -0.783457 0.747856
LeftFoot  13.6948 4.12214 -18.8244
LeftToes  1.24767e-006 1.47042e-008 1.32732e-009
146
root  -0.640383 41.5947 17.4392 7.77594 -36.2575 -2.24039
RightUpLeg  -7.95469 -1.77964 -7.81435
RightLeg  20.9537 0.924836 0.176617
RightFoot  1.02811 -1.52921 14.1111
RightToes  -2.08645e-008 3.77894e-005 6.81332e-007
Spine  -2.84364 -0.478398 -2.6043
Spine1  7.85631 -1.12836 3.21996
HEad  -30.7181 25.8521 -14.4914
LeftShoulder1  5.39679 -11.0322 -31.126
LeftArm  4.3123 27.0324 -36.4058
LeftForeArm  162.695 -66.7092 -156.465
LeftHand  -0.227296 -2.85934 3.42589
RightShoulder  3.43518 6.04812 30.0544
RightArm  16.349 -27.2382 30.0538
RightForeArm  156.3 71.3119 149.486
RightHand  -0.0521144 8.48758 -0.819734
LeftUpLeg  -10.2472 -1.85163 12.0524
LeftLeg  14.5926 -0.930952 0.628531
LeftFoot  8.95435 3.20223 -18.0698
LeftToes  1.24767e-006 1.47042e-008 1.32732e-009
147
root  -0.45806 40.3185 17.3491 7.34937 -36.7382 -2.27983
RightUpLeg  -7.29599 -1.57961 -7.0897
RightLeg  22.2164 -1.11155 -0.716677
RightFoot  -7.29772 -0.423321 10.3042
RightToes  -2.08645e-008 3.77894e-005 6.81332e-007
Spine  -2.71356 -0.324 -2.51296
Spine1  7.58707 -0.941411 3.23479
HEad  -30.6628 25.7293 -14.0521
LeftShoulder1  5.56801 -11.1671 -31.9531
LeftArm  8.59866 20.876 -30.0797
LeftForeArm  161.04 -67.6861 -155.182
LeftHand  -0.176375 -3.36712 2.58046
RightShoulder  3.50579 6.14426 30.4333
RightArm  15.1242 -22.6223 27.7098
RightForeArm  149.056 74.7883 140.989
RightHand  -0.0680579 8.75987 -0.9444
LeftUpLeg  -10.847 -6.50569 11.6756
LeftLeg  18.7851 4.01038 1.81778
LeftFoot  -1.17309 1.39631 -15.4929
LeftToes  1.24767e-006 1.47042e-008 1.32732e-009
148
root  -0.1316 38.9517 17.1862 6.67786 -36.7667 -2.95801
RightUpLeg  -6.54217 -0.676989 -6.29265
RightLeg  24.1749 -3.98087 -2.17846
RightFoot  -16.6911 0.252226 7.65923
RightToes  -2.08645e-008 3.77894e-005 6.81332e-007
Spine  -1.71823 -0.120025 -0.543056
Spine1  8.43476 -0.527567 2.00727
HEad  -32.3428 24.9 -14.8731
LeftShoulder1  6.00914 -11.605 -33.7733
LeftArm  11.5021 12.2308 -24.8512
LeftForeArm  159.116 -70.8898 -150.538
LeftHand  -0.292583 -3.68107 3.99927
RightShoulder  3.56868 6.18975 30.9196
RightArm  12.8557 -17.765 27.339
RightForeArm  134.101 78.4536 123.851
RightHand  -0.200302 8.7264 -2.03247
LeftUpLeg  -12.11 -9.41888 11.5116
LeftLeg  25.0849 7.71814 4.26595
LeftFoot  -12.0118 -0.0155772 -13.8547
LeftToes  1.24767e-006 1.47042e-008 1.32732e-009
149
root  0.264355 38.1394 17.013 5.90961 -36.3076 -3.99098
RightUpLeg  -6.85809 1.37189 -5.22813
RightLeg  27.6594 -6.45044 -3.89414
RightFoot  -20.9537 0.513389 7.75412
RightToes  -2.08645e-008 3.77894e-005 6.81332e-007
Spine  -0.686368 0.132457 1.20395
Spine1  10.6517 -0.211046 1.12364
HEad  -36.0339 23.3993 -16.1499
LeftShoulder1  6.48879 -12.1826 -35.3393
LeftArm  11.6147 5.51809 -24.2642
LeftForeArm  154.862 -75.3331 -140.614
LeftHand  -0.369618 -3.8166 4.92782
RightShoulder  3.54305 6.14077 30.8414
RightArm  9.94348 -15.4281 29.2612
RightForeArm  116.365 80.0123 105.953
RightHand  -0.423795 7.89659 -4.07248
LeftUpLeg  -13.8777 -13.0964 11.474
LeftLeg  31.1238 10.5135 7.14348
LeftFoot  -16.5117 -0.506205 -13.3333
LeftToes  1.24767e-006 1.47042e-008 1.32732e-009
150
root  0.591653 38.0937 17.0834 5.90009 -35.2101 -4.62712
RightUpLeg  -7.0826 1.66862 -4.83431
RightLeg  28.8095 -7.66589 -4.77275
RightFoot  -20.2056 0.547699 8.82186
RightToes  -2.08645e-008 3.77894e-005 6.81332e-007
Spine  -1.34546 -0.14153 1.04681
Spine1  12.2695 -0.842978 2.15416
HEad  -38.5644 22.9491 -16.0925
LeftShoulder1  6.95156 -12.7212 -36.7824
LeftArm  8.83089 6.78711 -27.6021
LeftForeArm  153.616 -77.0893 -134.991
LeftHand  -0.344699 -4.02559 4.52344
RightShoulder  3.72111 6.36208 31.8298
RightArm  8.07878 -17.11 30.9222
RightForeArm  114.108 80.1266 103.556
RightHand  -0.390221 7.67382 -3.82741
LeftUpLeg  -14.6277 -15.9646 11.2832
LeftLeg  32.6525 12.5507 8.87807
LeftFoot  -16.2784 -0.448295 -12.6106
LeftToes  1.24767e-006 1.47042e-008 1.32732e-009
151
root  0.841036 38.7004 17.4312 6.70642 -33.9826 -5.03584
RightUpLeg  -5.47194 -0.241207 -5.2674
RightLeg  24.4921 -6.85183 -3.6297
RightFoot  -16.1783 0.290134 9.44206
RightToes  -2.08645e-008 3.77894e-005 6.81332e-007
Spine  -2.89059 -0.595374 0.258157
Spine1  11.711 -1.6912 3.78087
HEad  -37.0121 23.6481 -14.3678
LeftShoulder1  7.07201 -12.7898 -37.324
LeftArm  6.50411 14.6772 -33.6446
LeftForeArm  159.961 -75.3866 -141.514
LeftHand  -0.395842 -3.58112 5.38178
RightShoulder  3.85845 6.47197 32.7958
RightArm  8.37801 -22.5239 32.7837
RightForeArm  124.322 79.6857 112.501
RightHand  -0.367986 7.86879 -3.58683
LeftUpLeg  -12.8591 -16.1216 11.2406
LeftLeg  27.2916 12.7787 7.39527
LeftFoot  -14.2507 -0.201161 -11.1912
LeftToes  1.24767e-006 1.47042e-008 1.32732e-009
152
root  1.10401 39.4709 17.8347 8.08264 -34.2679 -4.80304
RightUpLeg  -4.58189 -1.7716 -6.57638
RightLeg  18.8607 -4.59161 -2.02149
RightFoot  -10.7318 -0.130377 10.2643
RightToes  -2.08645e-008 3.77894e-005 6.81332e-007
Spine  -5.32809 -0.180069 -0.26818
Spine1  10.7455 -1.19389 3.78988
HEad  -34.2138 23.7263 -12.5942
LeftShoulder1  7.03356 -12.6828 -37.3719
LeftArm  5.08347 23.1384 -38.9388
LeftForeArm  163.272 -72.7949 -147.932
LeftHand  -0.38319 -3.51151 5.25499
RightShoulder  3.982 6.54809 33.7263
RightArm  9.46776 -28.7906 34.0625
RightForeArm  134.477 78.8618 121.822
RightHand  -0.181159 8.42869 -1.90131
LeftUpLeg  -10.2305 -11.9645 10.6256
LeftLeg  18.6753 9.85705 4.31888
LeftFoot  -10.6831 0.118853 -9.7638
LeftToes  1.24767e-006 1.47042e-008 1.32732e-009
